<svg xmlns="http://www.w3.org/2000/svg" xml:space="preserve" width="192" height="192" data-version="2">
    <path fill="#76309b" d="M96.96 145.52q-9.85 0-18.55-3-8.71-3.01-15.17-8.4-6.47-5.39-9.55-12.62-1.54-2.93-.08-5.39 1.46-2.47 4.85-3.24 2.62-.61 5.08.69 2.47 1.31 3.7 3.93 2 4.16 6.31 7.47 4.32 3.31 10.4 5.31 6.08 2.01 13.01 2.01 7.7 0 13.94-2.47 6.24-2.46 10.01-7.16 3.77-4.7 3.77-11.47 0-8.63-6.62-15.25-6.62-6.62-21.25-8.31-18.64-2.01-29.26-11.25-10.63-9.24-10.63-22.79 0-9.85 5.39-16.86t14.79-10.7q9.39-3.7 21.25-3.7 8.93 0 15.94 2.62 7 2.62 12.16 7.16t8.86 10.39q1.85 3.08 1.46 5.78-.38 2.69-2.85 4.23-2.77 1.54-5.77.62-3.01-.92-4.55-3.54-2.31-4.16-5.85-7.24-3.54-3.08-8.39-4.93-4.85-1.85-11.47-1.85-11.71-.15-19.25 4.55-7.55 4.69-7.55 14.09 0 4.93 2.54 9.16 2.54 4.24 8.93 7.39 6.39 3.16 17.94 4.55 18.64 2.15 28.49 11.31 9.86 9.17 9.86 24.11 0 8.62-3.31 15.09-3.31 6.47-9.16 10.85-5.86 4.39-13.48 6.63-7.62 2.23-15.94 2.23" paint-order="stroke"/>
</svg>
